<?xml version="1.0" standalone="no"?>
<!DOCTYPE svg PUBLIC "-//W3C//DTD SVG 20010904//EN"
 "http://www.w3.org/TR/2001/REC-SVG-20010904/DTD/svg10.dtd">
<svg version="1.0" xmlns="http://www.w3.org/2000/svg"
 width="512.000000pt" height="512.000000pt" viewBox="0 0 512.000000 512.000000"
 preserveAspectRatio="xMidYMid meet">

<g transform="translate(0.000000,512.000000) scale(0.100000,-0.100000)"
fill="#000000" stroke="none">
<path d="M850 4348 c-77 -39 -114 -121 -90 -201 10 -35 56 -87 276 -307 l264
-266 -72 -39 c-339 -182 -689 -443 -989 -736 -141 -138 -159 -165 -159 -239 0
-74 18 -100 164 -244 559 -547 1225 -926 1851 -1051 194 -39 309 -48 529 -42
270 6 458 39 735 129 l124 40 311 -310 c332 -330 346 -342 424 -327 106 19
173 124 142 222 -10 31 -320 346 -1669 1697 -1152 1153 -1668 1664 -1696 1677
-53 25 -91 24 -145 -3z m862 -1185 l147 -148 -44 -88 c-63 -129 -80 -205 -80
-367 0 -152 15 -225 70 -347 41 -89 83 -152 154 -227 100 -104 208 -171 361
-222 77 -25 99 -28 230 -28 172 -1 244 14 377 79 l88 44 92 -92 c51 -50 89
-95 85 -99 -14 -14 -258 -68 -377 -84 -163 -22 -455 -15 -611 15 -447 84 -914
309 -1357 654 -123 97 -347 294 -347 306 0 10 141 139 260 237 172 142 343
263 520 366 92 54 270 148 280 148 3 0 71 -66 152 -147z m728 -728 c173 -173
312 -316 309 -319 -13 -14 -131 -36 -189 -36 -225 0 -426 161 -471 378 -18 86
3 292 30 292 3 0 148 -142 321 -315z"/>
<path d="M2267 3885 c-179 -25 -208 -34 -248 -74 -72 -71 -73 -177 -2 -247 50
-51 95 -59 211 -37 140 25 526 25 667 -1 462 -85 925 -307 1382 -663 152 -119
338 -285 338 -303 0 -36 -353 -325 -599 -492 -165 -111 -181 -125 -197 -182
-16 -57 -2 -112 37 -156 45 -49 81 -64 149 -58 50 4 69 14 227 121 95 64 227
159 293 212 226 181 466 411 503 482 20 36 15 124 -9 162 -49 80 -370 374
-584 535 -494 372 -979 596 -1490 687 -155 28 -527 36 -678 14z"/>
<path d="M2532 3369 c-113 -56 -124 -224 -19 -297 20 -13 66 -28 114 -36 217
-38 371 -192 409 -408 21 -121 57 -167 144 -187 78 -17 159 22 191 93 23 51
24 94 3 194 -66 322 -324 580 -646 646 -103 21 -145 20 -196 -5z"/>
</g>
</svg>
